<svg width="36" height="37" viewBox="0 0 36 37" fill="none" xmlns="http://www.w3.org/2000/svg">
<g clip-path="url(#clip0_241_82)">
<path d="M27.5625 0.28125H8.4375C3.7776 0.28125 0 4.05885 0 8.71875V27.8438C0 32.5037 3.7776 36.2812 8.4375 36.2812H27.5625C32.2224 36.2812 36 32.5037 36 27.8438V8.71875C36 4.05885 32.2224 0.28125 27.5625 0.28125Z" fill="url(#paint0_radial_241_82)"/>
<path d="M27.5625 0.28125H8.4375C3.7776 0.28125 0 4.05885 0 8.71875V27.8438C0 32.5037 3.7776 36.2812 8.4375 36.2812H27.5625C32.2224 36.2812 36 32.5037 36 27.8438V8.71875C36 4.05885 32.2224 0.28125 27.5625 0.28125Z" fill="url(#paint1_radial_241_82)"/>
<path d="M18.0013 4.21875C14.1822 4.21875 13.7028 4.23548 12.2029 4.30369C10.7058 4.37231 9.68386 4.60927 8.78977 4.95703C7.86473 5.31619 7.08019 5.7967 6.29859 6.57858C5.5163 7.36031 5.03578 8.14486 4.6755 9.06947C4.32675 9.96384 4.08952 10.9862 4.02216 12.4826C3.95508 13.9826 3.9375 14.4622 3.9375 18.2814C3.9375 22.1006 3.95438 22.5785 4.02244 24.0784C4.09134 25.5755 4.3283 26.5974 4.67578 27.4915C5.03522 28.4165 5.51573 29.2011 6.29761 29.9827C7.07906 30.765 7.86361 31.2466 8.78794 31.6057C9.68273 31.9535 10.7048 32.1905 12.2016 32.2591C13.7017 32.3273 14.1806 32.344 17.9996 32.344C21.8191 32.344 22.2969 32.3273 23.7968 32.2591C25.2939 32.1905 26.317 31.9535 27.2118 31.6057C28.1364 31.2466 28.9198 30.765 29.7011 29.9827C30.4834 29.2011 30.9638 28.4165 31.3242 27.4919C31.6699 26.5974 31.9072 25.5752 31.9776 24.0787C32.0449 22.5788 32.0625 22.1006 32.0625 18.2814C32.0625 14.4622 32.0449 13.9829 31.9776 12.4829C31.9072 10.9858 31.6699 9.96398 31.3242 9.06989C30.9638 8.14486 30.4834 7.36031 29.7011 6.57858C28.919 5.79642 28.1367 5.31591 27.2109 4.95717C26.3145 4.60927 25.292 4.37217 23.7949 4.30369C22.2948 4.23548 21.8173 4.21875 17.9969 4.21875H18.0013ZM16.7397 6.75295C17.1142 6.75239 17.532 6.75295 18.0013 6.75295C21.7561 6.75295 22.201 6.76645 23.6838 6.83381C25.0549 6.89653 25.7991 7.12561 26.2948 7.31813C26.9511 7.57294 27.4189 7.87767 27.9108 8.37C28.403 8.86219 28.7076 9.33089 28.9631 9.98719C29.1556 10.4822 29.385 11.2264 29.4474 12.5975C29.5148 14.0799 29.5294 14.5252 29.5294 18.2782C29.5294 22.0312 29.5148 22.4765 29.4474 23.9588C29.3847 25.3299 29.1556 26.0741 28.9631 26.5693C28.7083 27.2256 28.403 27.6929 27.9108 28.1848C27.4186 28.677 26.9513 28.9815 26.2948 29.2365C25.7996 29.4299 25.0549 29.6584 23.6838 29.7211C22.2013 29.7885 21.7561 29.8031 18.0013 29.8031C14.2463 29.8031 13.8012 29.7885 12.3189 29.7211C10.9478 29.6578 10.2036 29.4287 9.70748 29.2362C9.05133 28.9813 8.58248 28.6767 8.0903 28.1845C7.59811 27.6923 7.29352 27.2247 7.038 26.5681C6.84548 26.073 6.61613 25.3288 6.55369 23.9577C6.48633 22.4753 6.47283 22.03 6.47283 18.2746C6.47283 14.5193 6.48633 14.0764 6.55369 12.594C6.61641 11.2229 6.84548 10.4787 7.038 9.98297C7.29295 9.32667 7.59811 8.85797 8.09044 8.36578C8.58277 7.87359 9.05133 7.56886 9.70762 7.31348C10.2033 7.12013 10.9478 6.89161 12.3189 6.82861C13.6162 6.76997 14.1189 6.75239 16.7397 6.74944V6.75295ZM25.5078 9.08789C24.5762 9.08789 23.8203 9.84305 23.8203 10.7748C23.8203 11.7065 24.5762 12.4623 25.5078 12.4623C26.4395 12.4623 27.1953 11.7065 27.1953 10.7748C27.1953 9.84319 26.4395 9.08733 25.5078 9.08733V9.08789ZM18.0013 11.0596C14.0131 11.0596 10.7796 14.2931 10.7796 18.2814C10.7796 22.2697 14.0131 25.5016 18.0013 25.5016C21.9895 25.5016 25.2219 22.2697 25.2219 18.2814C25.2219 14.2933 21.9893 11.0596 18.001 11.0596H18.0013ZM18.0013 13.5938C20.59 13.5938 22.6889 15.6923 22.6889 18.2814C22.6889 20.8702 20.59 22.969 18.0013 22.969C15.4125 22.969 13.3138 20.8702 13.3138 18.2814C13.3138 15.6923 15.4124 13.5938 18.0013 13.5938Z" fill="white"/>
</g>
<defs>
<radialGradient id="paint0_radial_241_82" cx="0" cy="0" r="1" gradientUnits="userSpaceOnUse" gradientTransform="translate(9.5625 39.054) rotate(-90) scale(35.6787 33.184)">
<stop stop-color="#FFDD55"/>
<stop offset="0.1" stop-color="#FFDD55"/>
<stop offset="0.5" stop-color="#FF543E"/>
<stop offset="1" stop-color="#C837AB"/>
</radialGradient>
<radialGradient id="paint1_radial_241_82" cx="0" cy="0" r="1" gradientUnits="userSpaceOnUse" gradientTransform="translate(-6.03014 2.87452) rotate(78.681) scale(15.9486 65.7405)">
<stop stop-color="#3771C8"/>
<stop offset="0.128" stop-color="#3771C8"/>
<stop offset="1" stop-color="#6600FF" stop-opacity="0"/>
</radialGradient>
<clipPath id="clip0_241_82">
<rect width="36" height="36" fill="white" transform="translate(0 0.28125)"/>
</clipPath>
</defs>
</svg>
