<svg width="42" height="36" viewBox="0 0 42 36" fill="none" xmlns="http://www.w3.org/2000/svg">
<g clip-path="url(#clip0_248_70)">
<path d="M23.5625 17.9922L27.5125 22.6586L32.8243 26.1665L33.7483 18.0217L32.8243 10.0605L27.4107 13.1422L23.5625 17.9922Z" fill="#00832D"/>
<path d="M0.641602 25.4069V32.3475C0.641602 33.9322 1.88624 35.2189 3.41988 35.2189H10.1353L11.5259 29.9748L10.1353 25.4069L5.52804 23.9697L0.641602 25.4069Z" fill="#0066DA"/>
<path d="M10.1353 0.763672L0.641602 10.5757L5.52836 12.0094L10.1353 10.5757L11.5005 6.06994L10.1353 0.763672Z" fill="#E94235"/>
<path d="M0.64209 25.4109H10.1356V10.5752H0.64209V25.4109Z" fill="#2684FC"/>
<path d="M38.8885 4.91814L32.8237 10.0603V26.1661L38.9135 31.3283C39.8251 32.0663 41.1587 31.3937 41.1587 30.196V6.02751C41.1587 4.81656 39.7933 4.1472 38.8883 4.9183" fill="#00AC47"/>
<path d="M23.5626 17.9912V25.4075H10.1353V35.2194H30.0463C31.58 35.2194 32.8244 33.9327 32.8244 32.348V26.1655L23.5626 17.9912Z" fill="#00AC47"/>
<path d="M30.1196 0.960938H10.2085V10.7729H23.6358V18.1892L32.8978 10.2573V3.83253C32.8978 2.24747 31.6532 0.961101 30.1196 0.961101" fill="#FFBA00"/>
</g>
<defs>
<clipPath id="clip0_248_70">
<rect width="40.5172" height="34.5147" fill="white" transform="translate(0.641602 0.763672)"/>
</clipPath>
</defs>
</svg>
