<svg width="42" height="42" viewBox="0 0 42 42" fill="none" xmlns="http://www.w3.org/2000/svg">
<g clip-path="url(#clip0_248_81)">
<path d="M39.5883 23.2972C39.7064 22.4701 39.7673 21.6359 39.7707 20.8004C39.7706 15.771 37.7726 10.9477 34.2163 7.39138C30.66 3.83509 25.8366 1.83715 20.8072 1.83707C19.9719 1.84055 19.1377 1.90146 18.3106 2.01932C13.6362 -0.499906 7.86255 0.346322 4.10792 4.10127C0.353282 7.85622 -0.493105 13.6294 2.02612 18.3038C1.90826 19.1309 1.84735 19.9649 1.84371 20.8004C1.84371 31.2738 10.334 39.7639 20.8072 39.7639C21.6425 39.7604 22.4769 39.6995 23.304 39.5816C27.9782 42.1009 33.7517 41.2546 37.5067 37.4997C41.2613 33.7451 42.1077 27.9714 39.5883 23.2972Z" fill="white"/>
<path d="M12.5876 24.5892C19.2186 24.5892 24.5941 19.2137 24.5941 12.5827C24.5941 5.95167 19.2186 0.576172 12.5876 0.576172C5.95655 0.576172 0.581055 5.95167 0.581055 12.5827C0.581055 19.2137 5.95655 24.5892 12.5876 24.5892Z" fill="url(#paint0_linear_248_81)"/>
<path d="M29.027 41.0267C35.658 41.0267 41.0335 35.6512 41.0335 29.0202C41.0335 22.3892 35.658 17.0137 29.027 17.0137C22.396 17.0137 17.0205 22.3892 17.0205 29.0202C17.0205 35.6512 22.396 41.0267 29.027 41.0267Z" fill="url(#paint1_linear_248_81)"/>
<mask id="mask0_248_81" style="mask-type:luminance" maskUnits="userSpaceOnUse" x="0" y="0" width="42" height="41">
<path d="M29.0267 17.0141C26.88 17.0136 24.7727 17.59 22.9252 18.6831C26.0157 13.4719 24.7444 6.7747 19.9591 3.05835C15.1739 -0.658313 8.3707 -0.232273 4.08625 4.05218C-0.198052 8.33648 -0.624093 15.1399 3.09241 19.925C6.80876 24.7103 13.5058 25.9817 18.7173 22.8912C15.9504 27.5806 16.6855 33.5452 20.5085 37.4224C24.3317 41.2997 30.2852 42.1187 35.0132 39.4179C39.7413 36.717 42.0599 31.1726 40.6619 25.9102C39.264 20.6475 34.4998 16.9847 29.0545 16.9861L29.0267 17.0141Z" fill="white"/>
</mask>
<g mask="url(#mask0_248_81)">
<path d="M20.4273 44.0978C32.8179 44.0978 42.8624 34.0532 42.8624 21.6626C42.8624 9.27208 32.8179 -0.772461 20.4273 -0.772461C8.03673 -0.772461 -2.00781 9.27208 -2.00781 21.6626C-2.00781 34.0532 8.03673 44.0978 20.4273 44.0978Z" fill="url(#paint2_radial_248_81)"/>
</g>
<path d="M20.8072 39.7649C31.2805 39.7649 39.7707 31.2746 39.7707 20.8014C39.7707 10.3281 31.2805 1.83789 20.8072 1.83789C10.334 1.83789 1.84375 10.3281 1.84375 20.8014C1.84375 31.2746 10.334 39.7649 20.8072 39.7649Z" fill="url(#paint3_linear_248_81)"/>
<path d="M20.8072 39.7649C31.2805 39.7649 39.7707 31.2746 39.7707 20.8014C39.7707 10.3281 31.2805 1.83789 20.8072 1.83789C10.334 1.83789 1.84375 10.3281 1.84375 20.8014C1.84375 31.2746 10.334 39.7649 20.8072 39.7649Z" fill="url(#paint4_linear_248_81)"/>
<path d="M13.8929 18.4719C13.4469 17.6357 13.2247 16.6983 13.2477 15.7508C13.2191 14.5533 13.628 13.3864 14.3979 12.4688C15.2079 11.5548 16.2426 10.8682 17.3994 10.477C18.6562 10.0334 19.9801 9.81038 21.3128 9.81776C22.1863 9.81178 23.0588 9.87744 23.9215 10.0141C24.5367 10.1172 25.142 10.272 25.7311 10.477C26.266 10.6618 26.7476 10.9748 27.1337 11.3887C27.4284 11.7208 27.5885 12.151 27.5825 12.595C27.5933 12.8278 27.558 13.0604 27.4785 13.2794C27.3991 13.4985 27.2771 13.6997 27.1196 13.8714C26.9727 14.0279 26.7941 14.1513 26.5958 14.2335C26.3975 14.3157 26.184 14.3548 25.9695 14.3482C25.6691 14.3437 25.373 14.2769 25.0998 14.1519C24.4391 13.8592 23.7597 13.6108 23.066 13.4083C22.4206 13.2396 21.7554 13.1595 21.0884 13.1701C20.224 13.1411 19.3688 13.3548 18.6197 13.7871C18.3044 13.9786 18.0467 14.2518 17.8738 14.5777C17.701 14.9036 17.6195 15.2702 17.6379 15.6387C17.6328 16.1179 17.8138 16.5805 18.1428 16.929C18.5453 17.3442 19.0208 17.6817 19.5455 17.9249C20.1205 18.2054 20.9481 18.5841 22.1262 19.0611L22.4909 19.2013C23.6035 19.6253 24.6703 20.161 25.6749 20.8002C26.4753 21.3191 27.1507 22.0089 27.6526 22.82C28.146 23.6709 28.3937 24.642 28.368 25.6253C28.4077 26.8298 28.0585 28.015 27.3721 29.0056C26.6679 29.9585 25.689 30.6731 24.5668 31.0535C23.2397 31.5267 21.8377 31.7548 20.429 31.7267C18.5031 31.7904 16.5869 31.4263 14.8185 30.6607C14.3655 30.4568 13.9668 30.1493 13.6545 29.7631C13.4089 29.3989 13.2815 28.9679 13.2898 28.5288C13.2744 28.2974 13.3105 28.0654 13.3953 27.8496C13.4802 27.6338 13.6118 27.4395 13.7807 27.2805C14.1313 26.9702 14.5894 26.8091 15.0571 26.8316C15.58 26.8391 16.0939 26.9688 16.5578 27.2103C17.1329 27.4908 17.5817 27.7153 17.9604 27.8554C18.3359 28.0142 18.7257 28.1363 19.1246 28.2201C19.6169 28.332 20.1208 28.3838 20.6255 28.3745C21.5188 28.4403 22.4082 28.2031 23.1501 27.7012C23.4303 27.4866 23.6545 27.2075 23.8035 26.8876C23.9525 26.5676 24.0218 26.2164 24.0057 25.8638C24.0192 25.3444 23.8277 24.8406 23.4727 24.4612C23.0152 23.9948 22.4846 23.6063 21.9017 23.3111C21.2145 22.9462 20.2327 22.5115 18.9845 21.9785C17.8628 21.532 16.787 20.9777 15.7723 20.3234C15.0136 19.8187 14.3521 19.2592 13.8929 18.4719Z" fill="white"/>
</g>
<defs>
<linearGradient id="paint0_linear_248_81" x1="1013.28" y1="14.5998" x2="1389.18" y2="2387.85" gradientUnits="userSpaceOnUse">
<stop offset="0.01" stop-color="#00B7F0"/>
<stop offset="0.34" stop-color="#009DE5"/>
<stop offset="0.76" stop-color="#0082D9"/>
<stop offset="1" stop-color="#0078D4"/>
</linearGradient>
<linearGradient id="paint1_linear_248_81" x1="176.923" y1="1817.99" x2="2258.42" y2="617.339" gradientUnits="userSpaceOnUse">
<stop stop-color="#0078D4"/>
<stop offset="0.37" stop-color="#007AD5"/>
<stop offset="0.57" stop-color="#0082D9"/>
<stop offset="0.74" stop-color="#0090DF"/>
<stop offset="0.88" stop-color="#00A3E7"/>
<stop offset="1" stop-color="#00BCF2"/>
</linearGradient>
<radialGradient id="paint2_radial_248_81" cx="0" cy="0" r="1" gradientUnits="userSpaceOnUse" gradientTransform="translate(2175.95 2242.74) scale(2244.45)">
<stop/>
<stop offset="1" stop-opacity="0"/>
</radialGradient>
<linearGradient id="paint3_linear_248_81" x1="1156.19" y1="613.373" x2="3052.54" y2="3898.34" gradientUnits="userSpaceOnUse">
<stop stop-color="#00B7F0"/>
<stop offset="1" stop-color="#007CC1"/>
</linearGradient>
<linearGradient id="paint4_linear_248_81" x1="1732.68" y1="3787.52" x2="2063.71" y2="8.85446" gradientUnits="userSpaceOnUse">
<stop stop-color="#0078D4"/>
<stop offset="1" stop-color="#00BCF2"/>
</linearGradient>
<clipPath id="clip0_248_81">
<rect width="40.5" height="40.5" fill="white" transform="translate(0.56543 0.53125)"/>
</clipPath>
</defs>
</svg>
