<svg width="36" height="37" viewBox="0 0 36 37" fill="none" xmlns="http://www.w3.org/2000/svg">
<g clip-path="url(#clip0_241_72)">
<path d="M18 0.28125C13.2272 0.28125 8.64563 2.17884 5.27344 5.55328C1.8978 8.92908 0.000965949 13.5073 0 18.2812C0 23.0532 1.89844 27.6348 5.27344 31.0092C8.64563 34.3837 13.2272 36.2812 18 36.2812C22.7728 36.2812 27.3544 34.3837 30.7266 31.0092C34.1016 27.6348 36 23.0532 36 18.2812C36 13.5093 34.1016 8.92772 30.7266 5.55328C27.3544 2.17884 22.7728 0.28125 18 0.28125Z" fill="url(#paint0_linear_241_72)"/>
<path d="M8.14777 18.0913C13.3959 15.8053 16.8946 14.2982 18.644 13.5699C23.6446 11.4907 24.6825 11.1295 25.3603 11.1173C25.5093 11.1149 25.8412 11.1517 26.0578 11.3268C26.2378 11.4745 26.2884 11.6742 26.3137 11.8144C26.3362 11.9544 26.3671 12.2737 26.3418 12.5228C26.0718 15.3691 24.899 22.276 24.3028 25.464C24.0525 26.8129 23.5546 27.2651 23.0737 27.3093C22.0275 27.4055 21.2343 26.6185 20.2218 25.9551C18.6384 24.9164 17.744 24.2701 16.2056 23.2567C14.4281 22.0856 15.5812 21.4418 16.5937 20.39C16.8581 20.1146 21.465 15.9254 21.5521 15.5454C21.5634 15.4979 21.5746 15.3207 21.4678 15.2273C21.3637 15.1337 21.209 15.1657 21.0965 15.1911C20.9362 15.2271 18.4078 16.8999 13.5028 20.2094C12.7856 20.7027 12.1359 20.9432 11.5509 20.9305C10.9096 20.9167 9.67214 20.5672 8.75245 20.2685C7.62745 19.902 6.73027 19.7082 6.80902 19.0858C6.84839 18.7618 7.29558 18.4302 8.14777 18.0913Z" fill="white"/>
</g>
<defs>
<linearGradient id="paint0_linear_241_72" x1="1800" y1="0.28125" x2="1800" y2="3600.28" gradientUnits="userSpaceOnUse">
<stop stop-color="#2AABEE"/>
<stop offset="1" stop-color="#229ED9"/>
</linearGradient>
<clipPath id="clip0_241_72">
<rect width="36" height="36" fill="white" transform="translate(0 0.28125)"/>
</clipPath>
</defs>
</svg>
