<svg width="36" height="37" viewBox="0 0 36 37" fill="none" xmlns="http://www.w3.org/2000/svg">
<g clip-path="url(#clip0_241_94)">
<path d="M0.768379 17.9234C0.767535 20.9717 1.56404 23.9482 3.07857 26.5717L0.623535 35.5354L9.79679 33.1302C12.334 34.5114 15.1767 35.2351 18.0655 35.2353H18.0731C27.6096 35.2353 35.3725 27.4752 35.3766 17.9371C35.3784 13.3151 33.5801 8.96898 30.3128 5.69916C27.0461 2.42963 22.7015 0.628086 18.0724 0.625977C8.53482 0.625977 0.772457 8.38566 0.76852 17.9234" fill="url(#paint0_linear_241_94)"/>
<path d="M0.150469 17.9179C0.149484 21.0759 0.974531 24.1588 2.54306 26.8762L0 36.1613L9.50217 33.6698C12.1203 35.0973 15.0681 35.85 18.0676 35.8511H18.0754C27.954 35.8511 35.9958 27.8118 36 17.9322C36.0017 13.1442 34.1387 8.64183 30.7547 5.25488C27.3703 1.86834 22.8703 0.00196875 18.0754 0C8.19506 0 0.154406 8.03813 0.150469 17.9179ZM5.80936 26.4083L5.45456 25.845C3.96309 23.4735 3.17587 20.733 3.177 17.919C3.18009 9.7072 9.86316 3.02625 18.081 3.02625C22.0607 3.02794 25.8007 4.57931 28.6138 7.39406C31.4267 10.2091 32.9746 13.9511 32.9736 17.9311C32.97 26.1429 26.2867 32.8247 18.0754 32.8247H18.0695C15.3958 32.8233 12.7735 32.1053 10.4867 30.7484L9.94247 30.4256L4.30369 31.904L5.80936 26.4083Z" fill="url(#paint1_linear_241_94)"/>
<path d="M13.5953 10.4269C13.2597 9.68112 12.9066 9.66608 12.5875 9.653C12.3263 9.64175 12.0276 9.64259 11.7292 9.64259C11.4305 9.64259 10.9452 9.75495 10.535 10.2028C10.1243 10.6512 8.96729 11.7345 8.96729 13.938C8.96729 16.1414 10.5722 18.2711 10.796 18.5702C11.02 18.8687 13.8944 23.5352 18.4467 25.3304C22.2301 26.8223 23 26.5256 23.8211 26.4508C24.6423 26.3763 26.471 25.3677 26.8441 24.3219C27.2175 23.2762 27.2175 22.3798 27.1055 22.1925C26.9936 22.0059 26.6949 21.8938 26.247 21.67C25.7991 21.4461 23.5971 20.3624 23.1866 20.213C22.776 20.0636 22.4774 19.9891 22.1787 20.4375C21.88 20.8853 21.0224 21.8938 20.7609 22.1925C20.4998 22.4919 20.2384 22.5292 19.7906 22.3052C19.3425 22.0805 17.9001 21.6081 16.1888 20.0825C14.8574 18.8953 13.9585 17.4293 13.6972 16.9808C13.4359 16.5331 13.6692 16.2904 13.8938 16.0672C14.095 15.8665 14.3418 15.5442 14.566 15.2828C14.7893 15.0212 14.8638 14.8346 15.0132 14.5359C15.1627 14.237 15.0878 13.9754 14.9761 13.7514C14.8638 13.5274 13.9935 11.3124 13.5953 10.4269Z" fill="white"/>
</g>
<defs>
<linearGradient id="paint0_linear_241_94" x1="1738.28" y1="3491.57" x2="1738.28" y2="0.625977" gradientUnits="userSpaceOnUse">
<stop stop-color="#1FAF38"/>
<stop offset="1" stop-color="#60D669"/>
</linearGradient>
<linearGradient id="paint1_linear_241_94" x1="1800" y1="3616.13" x2="1800" y2="0" gradientUnits="userSpaceOnUse">
<stop stop-color="#F9F9F9"/>
<stop offset="1" stop-color="white"/>
</linearGradient>
<clipPath id="clip0_241_94">
<rect width="36" height="36.2812" fill="white"/>
</clipPath>
</defs>
</svg>
