<svg width="119" height="28" viewBox="0 0 119 28" fill="none" xmlns="http://www.w3.org/2000/svg">
<path d="M27.8698 25.4723H8.58307C7.31992 25.4723 6.08746 24.7943 5.50202 23.6544C4.82452 22.3296 5.07068 20.7583 6.11815 19.7415L19.5514 6.30873H9.9078C7.25811 6.30873 5.13227 4.15198 5.13227 1.53298H22.9095C24.1726 1.53298 25.4049 2.21091 25.9903 3.35087C26.6682 4.67561 26.4216 6.24693 25.3742 7.2635L11.9412 20.6967H23.0636C25.713 20.6967 27.8698 22.8535 27.8698 25.4723ZM104.216 1.19434C101.443 1.19434 98.978 2.39589 97.2526 4.30607C95.5274 2.39589 93.0625 1.19434 90.2898 1.19434C85.1754 1.19434 80.9853 5.56921 80.9853 10.6836V25.4723C83.6348 25.4723 85.7606 23.3155 85.7606 20.6967V10.6529C85.7606 8.188 87.6708 6.09306 90.1355 6.00078C92.7236 5.90828 94.8494 7.97233 94.8494 10.5295V20.6967C94.8494 23.3464 97.0062 25.4723 99.625 25.4723V10.622C99.625 8.15731 101.535 6.06215 104 5.96987C106.588 5.87738 108.714 7.94164 108.714 10.4988V20.6658C108.714 23.3157 110.871 25.4414 113.489 25.4414V10.6531C113.52 5.56921 109.33 1.19434 104.216 1.19434ZM52.0243 13.5181C52.0243 20.327 46.5095 25.8418 39.7006 25.8418C32.8917 25.8418 27.3768 20.327 27.3768 13.5181C27.3768 6.70918 32.8917 1.19434 39.7006 1.19434C46.5095 1.19434 52.0243 6.70918 52.0243 13.5181ZM47.2488 13.5181C47.2488 9.35887 43.8598 5.96987 39.7006 5.96987C35.5414 5.96987 32.1522 9.35887 32.1522 13.5181C32.1522 17.6775 35.5414 21.0665 39.7006 21.0665C43.8598 21.0665 47.2488 17.6775 47.2488 13.5181ZM78.582 13.5181C78.582 20.327 73.0671 25.8418 66.2582 25.8418C59.4493 25.8418 53.9345 20.327 53.9345 13.5181C53.9345 6.70918 59.4493 1.19434 66.2582 1.19434C73.0671 1.19434 78.5822 6.70918 78.5822 13.5181M73.8068 13.5181C73.8068 9.35887 70.4179 5.96987 66.2584 5.96987C62.0994 5.96987 58.7102 9.35887 58.7102 13.5181C58.7102 17.6775 62.0992 21.0665 66.2584 21.0665C70.4179 21.0665 73.8068 17.6775 73.8068 13.5181Z" fill="#0B5CFF"/>
</svg>
